<?xml version="1.0" standalone="no"?>
<!DOCTYPE svg PUBLIC "-//W3C//DTD SVG 20010904//EN"
 "http://www.w3.org/TR/2001/REC-SVG-20010904/DTD/svg10.dtd">
<svg version="1.0" xmlns="http://www.w3.org/2000/svg"
 width="177.000000pt" height="177.000000pt" viewBox="0 0 177.000000 177.000000"
 preserveAspectRatio="xMidYMid meet">
<metadata>
Created by potrace 1.11, written by Peter Selinger 2001-2013
</metadata>
<g transform="translate(0.000000,177.000000) scale(0.100000,-0.100000)"
fill="#000000" stroke="none">
<path d="M100 1726 c0 -66 26 -178 56 -238 14 -29 28 -64 30 -78 3 -14 12 -32
20 -41 16 -17 10 -69 -7 -69 -5 0 -9 -5 -9 -11 0 -5 4 -7 10 -4 5 3 10 1 10
-4 0 -6 -4 -11 -10 -11 -5 0 -10 -5 -10 -10 0 -6 17 2 38 18 20 17 54 35 75
42 37 12 47 25 25 33 -7 2 -1 6 15 9 22 4 25 3 16 -8 -9 -11 -7 -14 12 -14 13
0 41 4 62 9 21 5 39 5 43 0 3 -5 15 -9 27 -9 54 -1 196 -97 181 -122 -3 -4 2
-8 11 -8 12 0 15 -5 11 -17 -4 -10 6 -4 21 13 15 16 22 23 16 14 -15 -19 -17
-56 -4 -64 11 -7 20 -66 10 -66 -5 0 -6 -8 -2 -17 3 -10 3 -15 -1 -12 -6 6
-10 21 -20 65 -1 7 -7 18 -13 26 -6 7 -13 19 -15 26 -4 18 -91 108 -100 104
-5 -2 -8 1 -8 6 0 18 -93 42 -164 42 -55 0 -84 -6 -126 -26 -60 -28 -123 -81
-113 -97 3 -6 1 -7 -5 -3 -25 15 -91 -150 -69 -174 9 -10 8 -12 -5 -7 -10 3
-20 2 -23 -3 -4 -6 -22 -10 -41 -10 -42 0 -44 -18 -4 -33 17 -6 30 -15 30 -19
0 -4 9 -8 20 -8 12 0 21 -7 22 -17 0 -10 2 -31 3 -47 1 -16 10 -33 19 -38 9
-5 14 -13 11 -19 -4 -5 0 -9 7 -9 9 0 9 -3 -2 -10 -12 -8 -12 -10 5 -10 17 0
17 -2 5 -10 -13 -9 -13 -10 0 -10 13 0 13 -1 0 -10 -13 -9 -13 -10 0 -10 13 0
13 -1 0 -10 -8 -5 -10 -10 -4 -10 13 0 25 -35 16 -45 -3 -3 -7 -13 -8 -21 -1
-9 -5 -23 -9 -32 -5 -14 -7 -14 -15 -2 -6 8 -10 25 -10 38 0 13 -4 21 -9 18
-4 -3 -6 -16 -4 -30 3 -13 0 -27 -6 -30 -16 -11 -13 -46 5 -53 12 -4 8 -10
-15 -24 -31 -19 -40 -42 -21 -54 8 -5 8 -11 0 -20 -6 -7 -8 -20 -4 -29 5 -12
-2 -19 -25 -27 -35 -12 -36 -32 -3 -37 13 -2 19 -8 16 -14 -4 -6 1 -17 11 -25
11 -7 13 -13 7 -13 -7 0 -12 -8 -12 -17 0 -15 -2 -16 -10 -3 -8 12 -10 10 -11
-10 0 -14 -3 -19 -6 -12 -4 10 -8 9 -18 -5 -9 -12 -10 -22 -3 -30 6 -8 6 -18
-1 -32 -8 -14 -8 -21 2 -24 9 -4 9 -6 0 -6 -18 -1 -16 -21 2 -21 8 0 15 -4 15
-9 0 -5 -8 -8 -18 -7 -15 1 -17 -10 -20 -81 l-3 -83 886 0 885 0 0 128 0 127
-39 29 c-25 18 -37 34 -34 43 3 9 9 11 15 5 5 -5 20 -7 34 -4 34 6 32 40 -3
48 -69 15 -76 21 -49 44 8 6 12 18 9 26 -3 8 1 14 8 15 8 0 -4 6 -26 14 -22 7
-33 13 -24 14 23 1 44 28 27 34 -10 4 -11 7 0 18 18 20 15 39 -8 39 -12 0 -25
-10 -30 -23 -25 -57 -46 -78 -68 -69 -11 4 -13 2 -6 -9 16 -25 12 -35 -14 -33
-14 0 -33 10 -42 22 -10 12 -21 18 -25 14 -5 -4 -4 -1 0 7 6 11 4 13 -9 8 -9
-4 -15 -3 -12 2 3 4 -12 16 -34 26 -22 10 -40 22 -40 27 0 4 34 -10 75 -32 85
-45 87 -46 79 -25 -4 8 -1 15 5 15 6 0 11 7 11 15 0 9 6 12 16 8 12 -4 15 -1
12 13 -2 11 -15 21 -33 25 -28 6 -29 7 -5 9 14 2 30 3 36 3 8 0 9 9 4 28 -7
23 -6 27 8 22 10 -4 13 -2 8 5 -4 7 -19 13 -34 13 l-27 1 30 8 c17 4 26 8 20
9 -5 1 0 6 13 11 27 11 29 30 3 30 -29 0 -52 11 -45 21 3 5 10 6 16 3 6 -4 8
-3 5 3 -4 6 5 21 18 33 14 13 25 28 25 34 0 6 -16 -6 -36 -26 -54 -56 -114
-81 -203 -84 l-76 -3 75 9 c116 12 173 42 231 123 16 22 29 35 29 29 0 -6 -4
-14 -10 -17 -12 -7 -13 -25 -2 -25 4 0 16 23 26 51 10 28 26 53 35 57 18 6 61
49 61 60 0 13 -48 30 -58 20 -6 -6 -12 -6 -16 1 -4 6 0 11 8 11 17 0 21 20 7
36 -4 5 -14 30 -21 56 -11 41 -80 138 -113 160 -6 3 -12 14 -13 24 -2 9 -8 20
-14 24 -8 5 -7 12 5 24 9 9 15 26 14 39 -2 12 0 27 3 33 4 6 -2 21 -13 33 -15
16 -24 19 -37 12 -11 -6 -24 -5 -36 1 -12 7 -17 7 -12 0 7 -11 -21 -25 -35
-16 -5 3 -9 -1 -9 -8 0 -9 -3 -9 -10 2 -7 11 -4 17 11 22 26 10 20 30 -12 39
-13 4 -18 7 -11 8 6 1 12 9 13 19 0 9 3 12 5 5 3 -7 12 -9 20 -6 7 3 12 9 9
13 -3 5 4 11 15 15 20 7 28 25 10 25 -22 0 -8 28 16 34 48 12 75 37 72 65 -2
18 2 26 12 26 22 0 26 -145 5 -197 -8 -21 -11 -38 -6 -38 19 0 56 135 67 243
l7 67 -143 0 -143 0 -61 -57 c-65 -62 -81 -86 -77 -118 2 -11 0 -17 -5 -13 -4
4 -13 3 -21 -3 -10 -9 -13 -8 -14 2 0 8 -4 6 -8 -5 -7 -18 -8 -18 -25 0 -12
11 -15 19 -7 22 16 5 14 22 -4 22 -8 0 -15 -4 -15 -10 0 -5 -9 -10 -20 -10
-11 0 -19 -3 -19 -7 1 -5 1 -17 0 -28 -1 -16 -3 -17 -11 -5 -10 16 -15 14 -24
-15 -5 -16 -1 -20 21 -22 14 0 30 -8 35 -17 9 -17 28 -13 28 5 0 6 -5 7 -10 4
-12 -8 -13 5 -1 23 6 10 10 8 14 -8 8 -32 -2 -52 -23 -45 -10 3 -21 1 -25 -5
-3 -5 1 -10 9 -10 22 0 48 -54 33 -69 -6 -6 -15 -11 -21 -11 -5 0 -1 7 10 16
18 14 18 15 -4 4 -12 -6 -27 -8 -32 -5 -6 4 -9 3 -8 -2 3 -8 -5 -13 -23 -13
-5 0 -7 5 -4 10 3 6 2 10 -3 10 -6 0 -8 10 -4 22 3 14 2 19 -7 14 -6 -4 -9
-11 -6 -16 3 -4 -2 -13 -10 -20 -11 -9 -15 -9 -15 -1 0 7 -6 9 -12 5 -7 -3 1
5 17 19 28 23 44 77 23 77 -4 0 -8 -6 -8 -12 -1 -7 -6 -3 -14 10 -11 21 -14
22 -25 8 -18 -22 -31 -20 -31 5 0 11 -4 17 -11 14 -5 -4 -8 -12 -6 -18 2 -7
-2 -20 -10 -29 -14 -15 -13 -17 9 -14 13 1 29 5 34 9 6 3 11 0 11 -8 0 -8 -4
-12 -8 -10 -4 3 -17 -16 -28 -41 -12 -25 -24 -44 -27 -41 -3 3 -1 15 6 26 6
12 8 21 4 21 -3 0 -1 7 6 15 7 9 10 18 6 22 -3 3 -6 1 -6 -7 0 -10 -3 -10 -15
0 -8 7 -15 18 -15 26 0 7 -4 15 -9 19 -9 5 1 -44 13 -63 2 -4 1 -14 -3 -21 -5
-8 -11 2 -15 28 -6 39 -7 40 -26 24 -11 -10 -20 -22 -20 -28 0 -5 -8 -19 -17
-30 -12 -15 -14 -16 -10 -3 7 19 -19 33 -27 15 -3 -7 -3 -2 0 11 4 16 1 22
-10 22 -9 0 -16 8 -16 19 0 11 -6 21 -12 24 -17 6 -9 14 17 19 15 2 20 -3 21
-20 1 -23 24 -57 24 -36 0 5 -4 14 -10 20 -6 6 -6 15 0 24 8 12 10 11 10 -7 0
-27 16 -38 24 -17 9 22 8 26 -6 18 -8 -5 -9 0 -6 14 4 12 2 20 -2 17 -5 -3
-14 3 -20 12 -11 17 -11 17 -6 -1 5 -14 3 -16 -6 -8 -9 7 -18 6 -32 -4 -10 -7
-24 -10 -30 -7 -6 4 -3 -5 7 -20 16 -24 16 -26 0 -20 -13 5 -15 2 -10 -11 4
-10 7 -22 7 -27 0 -6 9 -7 22 -4 17 6 20 4 14 -10 -4 -11 0 -25 9 -35 15 -16
14 -17 -7 -16 -14 1 -23 -5 -23 -14 -1 -8 -7 -14 -15 -12 -11 3 -11 0 -1 -12
10 -11 9 -14 -1 -12 -7 1 -19 5 -26 10 -11 7 -12 4 -3 -12 8 -14 8 -23 1 -27
-6 -4 -9 -1 -8 7 2 7 -2 12 -9 11 -9 -2 -10 4 -3 21 8 22 5 26 -20 37 -16 8
-26 17 -23 22 3 5 0 8 -8 5 -8 -3 -16 -13 -18 -24 -5 -27 -21 -44 -40 -43 -13
1 -13 2 2 6 9 2 14 9 11 15 -5 7 -2 8 5 4 8 -5 11 -3 10 5 -2 16 28 89 37 89
3 0 2 -10 -1 -22 l-7 -23 17 23 c17 23 12 47 -8 36 -7 -4 -9 -4 -5 1 4 4 3 17
-3 28 -8 14 -8 18 0 13 6 -4 11 0 11 8 0 9 3 15 8 15 24 -4 33 3 27 21 -4 12
-2 27 4 34 9 10 8 15 -2 19 -8 3 -20 -3 -27 -14 -10 -13 -17 -15 -27 -7 -10 8
-13 6 -13 -7 0 -9 -6 -15 -13 -12 -6 2 -17 -3 -22 -10 -11 -15 -45 -8 -45 9 0
5 5 6 10 3 6 -3 10 -3 10 0 0 19 -25 46 -77 86 -32 24 -75 58 -96 76 l-37 33
-125 0 -125 0 0 -44z m95 -126 c-3 -5 -1 -10 5 -10 6 0 10 -10 8 -23 -1 -12 5
-33 14 -46 11 -15 15 -34 12 -48 -4 -13 -2 -23 2 -23 5 0 20 -9 34 -20 15 -12
18 -18 8 -14 -13 4 -18 1 -18 -11 0 -10 -6 -15 -17 -13 -26 5 -62 86 -69 156
-6 54 -5 62 10 62 10 0 14 -4 11 -10z m995 -96 c0 -8 -4 -12 -10 -9 -5 3 -10
13 -10 21 0 8 5 12 10 9 6 -3 10 -13 10 -21z m37 -46 c-3 -8 -6 -5 -6 6 -1 11
2 17 5 13 3 -3 4 -12 1 -19z m-212 3 c3 -5 1 -12 -5 -16 -5 -3 -10 1 -10 9 0
18 6 21 15 7z m-600 -9 c-5 -4 -10 -14 -10 -22 0 -8 -10 -19 -22 -25 -13 -5
-23 -13 -23 -17 0 -5 -7 -8 -15 -8 -18 0 -20 20 -2 21 9 0 9 2 0 6 -16 6 0 23
37 40 29 13 51 17 35 5z m472 -8 c2 -6 -3 -11 -10 -11 -8 0 -14 6 -14 14 0 15
19 12 24 -3z m-275 -26 c-7 -7 -10 -5 -7 8 5 29 6 30 12 16 3 -8 1 -18 -5 -24z
m658 28 c0 -2 -8 -10 -17 -17 -16 -13 -17 -12 -4 4 13 16 21 21 21 13z m215
-26 c-3 -5 -13 -10 -21 -10 -8 0 -12 5 -9 10 3 6 13 10 21 10 8 0 12 -4 9 -10z
m-305 -37 c-11 -17 -11 -17 -6 0 3 10 6 24 7 30 0 9 2 9 5 0 3 -7 0 -20 -6
-30z m-144 19 c-2 -4 8 -16 23 -26 20 -14 28 -27 27 -46 -1 -18 -6 -26 -13
-23 -15 6 -17 -8 -3 -25 5 -7 2 -6 -7 2 -14 13 -14 17 -2 32 12 16 12 17 -4
11 -10 -4 -16 -3 -12 2 3 5 1 12 -4 15 -5 4 -12 2 -16 -4 -3 -5 -11 -10 -17
-10 -6 0 -6 6 2 15 7 9 21 13 31 10 14 -5 17 -2 13 8 -6 16 -20 17 -41 4 -7
-5 -13 -6 -13 -3 0 2 -3 12 -6 20 -4 12 -2 15 9 10 8 -3 18 -1 22 5 3 6 8 11
11 11 3 0 3 -4 0 -8z m-456 -12 c0 -5 -2 -10 -4 -10 -3 0 -8 5 -11 10 -3 6 -1
10 4 10 6 0 11 -4 11 -10z m913 -16 c-4 -10 -9 -12 -16 -5 -5 5 -17 7 -26 5
-9 -3 -5 1 9 9 28 17 42 13 33 -9z m-640 -14 c-6 -22 -15 -19 -19 5 -1 8 4 15
11 15 8 0 11 -7 8 -20z m380 2 c-31 -5 -29 -15 6 -30 18 -8 44 -10 70 -6 25 4
41 3 41 -4 0 -15 -28 -23 -56 -16 -14 4 -24 2 -24 -5 0 -5 -10 -15 -21 -22
-15 -7 -19 -8 -15 0 5 7 1 9 -8 5 -9 -3 -13 -11 -9 -17 3 -5 1 -7 -4 -4 -6 4
-22 -2 -34 -13 -13 -11 -20 -19 -15 -20 5 0 1 -9 -9 -20 -10 -11 -22 -17 -28
-13 -6 4 -8 0 -5 -8 3 -8 -3 -30 -14 -49 -10 -19 -16 -26 -13 -15 6 19 5 19
-14 -2 -12 -12 -21 -36 -21 -52 0 -26 -21 -51 -42 -51 -8 0 -6 40 3 45 13 9
11 22 -5 28 -11 4 -13 1 -9 -10 4 -9 2 -14 -3 -10 -5 3 -10 -2 -11 -11 -1 -24
-11 -97 -14 -108 -2 -5 7 -28 19 -51 31 -60 30 -75 -5 -58 -42 21 -108 31 -98
15 6 -9 3 -10 -13 -1 -13 7 -23 7 -27 1 -3 -5 -12 -7 -20 -4 -8 4 -12 10 -9
15 3 5 0 9 -5 9 -6 0 -11 -4 -11 -10 0 -5 -9 -14 -19 -20 -19 -10 -19 -9 -5
17 7 16 14 37 14 49 0 12 10 26 23 33 12 6 15 10 6 7 -16 -4 -16 -5 -9 106 2
26 16 30 17 6 1 -12 8 -25 15 -29 17 -11 28 29 15 55 -8 16 -6 18 8 12 15 -5
16 -4 6 8 -10 12 -9 14 6 12 10 -2 18 -8 18 -14 0 -16 15 -27 16 -11 0 8 4 5
8 -6 5 -12 4 -26 -3 -35 -9 -13 -9 -13 5 -3 9 7 19 10 23 6 4 -4 3 4 -3 19 -8
22 -8 26 4 21 8 -3 13 -9 10 -13 -3 -5 0 -12 6 -16 8 -4 9 -3 5 4 -4 7 -2 12
4 12 6 0 8 6 4 13 -4 6 -4 9 1 5 9 -8 50 11 41 19 -11 12 16 31 37 27 18 -3
23 1 24 18 3 29 -24 58 -45 52 -12 -4 -11 -2 2 7 17 10 22 9 34 -9 20 -31 35
-28 76 18 36 40 47 67 24 55 -7 -4 -4 1 7 9 11 9 26 14 34 11 11 -4 12 -3 1
10 -7 8 -17 12 -22 9 -6 -4 -5 2 1 14 12 23 31 32 46 23 6 -3 0 -7 -12 -9z
m-299 0 c3 -5 -1 -9 -9 -9 -8 0 -12 4 -9 9 3 4 7 8 9 8 2 0 6 -4 9 -8z m53
-17 c-4 -8 -11 -15 -17 -15 -6 0 -6 7 2 20 14 22 24 19 15 -5z m-179 -20 c-3
-3 -9 2 -12 12 -6 14 -5 15 5 6 7 -7 10 -15 7 -18z m482 21 c0 -3 -4 -8 -10
-11 -5 -3 -10 -1 -10 4 0 6 5 11 10 11 6 0 10 -2 10 -4z m-630 -27 c0 -5 -4
-9 -10 -9 -5 0 -10 7 -10 16 0 8 5 12 10 9 6 -3 10 -10 10 -16z m485 -9 c3 -6
-1 -7 -9 -4 -18 7 -21 14 -7 14 6 0 13 -4 16 -10z m-690 -39 c15 -6 5 -9 -35
-13 -62 -7 -74 -3 -39 11 29 12 47 12 74 2z m490 -8 c16 -10 12 -11 -25 -6
-25 3 -49 9 -53 13 -13 11 56 5 78 -7z m-38 -99 c-3 -3 -12 -4 -19 -1 -8 3 -5
6 6 6 11 1 17 -2 13 -5z m363 -14 c0 -5 -9 -10 -20 -10 -11 0 -20 5 -20 10 0
6 9 10 20 10 11 0 20 -4 20 -10z m-840 -9 c0 -12 -28 -22 -34 -12 -3 5 -3 11
1 15 9 9 33 7 33 -3z m50 -1 c0 -5 -5 -10 -11 -10 -5 0 -7 5 -4 10 3 6 8 10
11 10 2 0 4 -4 4 -10z m440 0 c0 -5 -2 -10 -4 -10 -3 0 -8 5 -11 10 -3 6 -1
10 4 10 6 0 11 -4 11 -10z m590 -30 c0 -5 -7 -10 -15 -10 -8 0 -15 5 -15 10 0
6 7 10 15 10 8 0 15 -4 15 -10z m-1373 -22 c-3 -8 -6 -5 -6 6 -1 11 2 17 5 13
3 -3 4 -12 1 -19z m513 12 c0 -5 -4 -10 -10 -10 -5 0 -10 5 -10 10 0 6 5 10
10 10 6 0 10 -4 10 -10z m437 -22 c-3 -8 -6 -5 -6 6 -1 11 2 17 5 13 3 -3 4
-12 1 -19z m-960 -30 c-3 -8 -6 -5 -6 6 -1 11 2 17 5 13 3 -3 4 -12 1 -19z
m657 6 c4 -10 1 -14 -6 -12 -15 5 -23 28 -10 28 5 0 13 -7 16 -16z m293 -26
c-3 -7 -5 -2 -5 12 0 14 2 19 5 13 2 -7 2 -19 0 -25z m-292 -8 c3 -5 1 -10 -4
-10 -6 0 -11 5 -11 10 0 6 2 10 4 10 3 0 8 -4 11 -10z m292 -62 c-2 -13 -4 -5
-4 17 -1 22 1 32 4 23 2 -10 2 -28 0 -40z m610 10 c-3 -8 -6 -5 -6 6 -1 11 2
17 5 13 3 -3 4 -12 1 -19z m-1560 -25 c-3 -10 -5 -4 -5 12 0 17 2 24 5 18 2
-7 2 -21 0 -30z m610 -15 c-3 -8 -6 -5 -6 6 -1 11 2 17 5 13 3 -3 4 -12 1 -19z
m369 -55 c7 -18 11 -33 8 -33 -7 0 -34 67 -33 82 0 8 3 8 6 -2 3 -8 12 -30 19
-47z m-64 29 c-7 -2 -9 -9 -6 -14 4 -7 2 -8 -4 -4 -6 4 -9 13 -6 21 4 8 11 12
17 8 8 -5 7 -8 -1 -11z m629 -19 c-12 -20 -14 -14 -5 12 4 9 9 14 11 11 3 -2
0 -13 -6 -23z m-947 2 c-4 -8 -10 -15 -15 -15 -4 0 -6 7 -3 15 4 8 10 15 15
15 4 0 6 -7 3 -15z m-45 -64 c-12 -16 -28 -32 -36 -35 -8 -3 1 12 19 33 38 46
50 47 17 2z m-501 4 c-3 -3 -9 2 -12 12 -6 14 -5 15 5 6 7 -7 10 -15 7 -18z
m608 -7 c4 -7 3 -8 -4 -4 -23 14 -11 -16 17 -44 16 -16 26 -32 22 -36 -3 -4
-1 -5 4 -2 15 8 57 -10 50 -21 -3 -6 2 -14 11 -19 12 -6 14 -16 9 -32 -7 -22
-9 -22 -20 -7 -10 14 -18 15 -39 7 -14 -5 -26 -12 -26 -16 0 -3 6 -4 13 -1 6
2 21 1 32 -4 17 -6 16 -8 -12 -14 -18 -4 -33 -12 -33 -17 0 -5 4 -7 9 -4 4 3
13 -6 20 -20 6 -14 7 -23 2 -19 -5 3 -12 1 -16 -5 -11 -18 -23 -10 -18 11 6
20 3 19 -26 -6 -23 -22 -28 -31 -19 -38 9 -6 8 -7 -4 -4 -9 3 -19 -1 -22 -9
-3 -8 -15 -14 -26 -14 -11 0 -20 -5 -20 -12 0 -6 -3 -8 -6 -5 -11 10 18 38 33
33 7 -3 13 -2 14 2 0 4 2 15 4 24 4 21 -16 12 -53 -22 -37 -35 -49 -17 -14 20
28 29 40 50 28 50 -15 0 -35 -14 -30 -21 3 -5 -10 -10 -28 -10 -18 -1 -42 -3
-53 -5 -11 -1 -35 -5 -52 -8 -18 -3 -33 -1 -33 4 0 6 4 10 9 10 5 0 13 10 16
21 5 16 9 18 15 8 7 -10 11 -10 24 0 9 8 16 10 16 6 0 -4 8 -1 18 6 15 13 16
12 3 -4 -8 -9 -11 -20 -9 -23 3 -3 15 7 26 21 13 16 26 24 33 19 8 -5 9 -3 4
6 -6 10 -4 12 11 6 10 -4 15 -4 10 1 -4 4 10 15 31 24 l38 16 -34 -2 c-18 -1
-36 -6 -40 -11 -5 -8 -13 -10 -63 -16 -9 -1 -15 -5 -12 -9 8 -14 -11 -17 -23
-4 -9 10 -2 19 34 41 25 16 50 28 55 26 6 -2 8 3 5 11 -7 18 0 26 45 60 20 15
40 36 43 47 7 22 20 26 31 8z m298 -60 c-4 -6 -3 -8 4 -4 6 3 13 2 17 -4 4 -6
11 -8 16 -5 5 4 9 2 9 -3 0 -5 18 -27 39 -48 22 -21 38 -41 35 -46 -6 -10 108
-66 124 -61 6 3 12 -2 12 -11 0 -21 -48 -21 -79 0 -17 13 -25 14 -34 5 -9 -9
-7 -11 8 -6 15 5 16 4 6 -3 -10 -7 -24 -4 -48 9 -18 10 -41 19 -50 19 -15 0
-15 -2 0 -18 10 -10 15 -21 12 -23 -2 -3 6 -6 18 -6 12 -1 23 -7 25 -13 3 -8
8 -7 18 1 8 7 17 9 21 5 3 -3 1 -6 -6 -6 -7 0 -9 -5 -6 -11 9 -13 -43 -6 -73
10 -11 6 -31 11 -43 11 -17 0 -19 -3 -10 -14 10 -12 9 -14 -6 -11 -10 2 -22 4
-28 4 -5 1 -4 5 4 10 17 11 6 31 -17 31 -15 0 -15 -2 -2 -10 8 -5 13 -10 10
-11 -3 0 -12 -2 -22 -4 -12 -2 -15 3 -13 20 1 17 -2 22 -13 17 -9 -3 -13 -1
-9 5 7 11 -26 47 -35 38 -2 -3 -15 6 -27 19 -22 24 -22 25 -4 53 24 37 39 53
52 53 6 0 11 5 11 11 0 5 5 7 10 4 6 -3 10 0 10 8 0 8 7 18 16 21 13 5 14 9 4
24 -7 9 2 2 19 -16 17 -18 29 -38 25 -44z m125 -7 c24 -17 40 -31 34 -31 -18
0 -89 57 -106 86 l-18 29 23 -26 c13 -15 43 -40 67 -58z m-861 -28 l47 -13
-45 5 c-49 7 -113 40 -145 75 -13 16 -1 11 38 -15 32 -21 79 -44 105 -52z
m267 47 c-3 -6 -21 -17 -38 -26 -36 -19 -31 -9 10 17 34 21 36 22 28 9z m-78
-46 c-3 -3 -12 -4 -19 -1 -8 3 -5 6 6 6 11 1 17 -2 13 -5z m-57 -14 c-14 -4
-36 -8 -50 -8 -22 0 -22 1 5 8 17 4 39 8 50 8 16 0 15 -2 -5 -8z m170 0 c0 -5
-2 -10 -4 -10 -3 0 -8 5 -11 10 -3 6 -1 10 4 10 6 0 11 -4 11 -10z m667 -6
c-3 -3 -12 -4 -19 -1 -8 3 -5 6 6 6 11 1 17 -2 13 -5z m-1060 -100 c-3 -3 -12
-4 -19 -1 -8 3 -5 6 6 6 11 1 17 -2 13 -5z m243 -24 c-8 -5 -19 -10 -25 -10
-5 0 -3 5 5 10 8 5 20 10 25 10 6 0 3 -5 -5 -10z m674 -6 c3 -8 2 -12 -4 -9
-6 3 -10 10 -10 16 0 14 7 11 14 -7z m-715 -8 c-2 -2 -15 -9 -29 -15 -24 -11
-24 -11 -6 3 16 13 49 24 35 12z m-82 -12 c-3 -3 -12 -4 -19 -1 -8 3 -5 6 6 6
11 1 17 -2 13 -5z m410 -9 c0 -8 -4 -12 -9 -9 -5 3 -6 10 -3 15 9 13 12 11 12
-6z m-412 -46 c-55 -22 -110 -44 -123 -50 -13 -5 -21 -5 -18 0 3 4 26 16 51
25 25 10 43 21 40 26 -3 4 2 11 11 14 8 3 12 2 9 -4 -8 -13 -8 -13 50 10 28
10 57 19 65 19 8 0 -30 -18 -85 -40z m765 20 c0 -5 -4 -9 -8 -9 -5 0 -9 7 -9
15 0 8 4 12 9 9 4 -3 8 -9 8 -15z m135 1 c-27 -12 -35 -12 -35 0 0 6 12 10 28
9 24 0 25 -1 7 -9z m-669 -27 c-10 -10 -19 5 -10 18 6 11 8 11 12 0 2 -7 1
-15 -2 -18z m789 -48 l30 -27 -30 21 c-16 11 -43 32 -60 46 l-30 27 30 -21
c17 -11 44 -32 60 -46z m-915 50 c0 -3 -10 -10 -22 -15 -13 -5 -34 -18 -48
-27 -13 -10 -21 -13 -17 -6 4 7 0 13 -10 15 -11 3 2 11 32 20 58 19 65 20 65
13z m952 -30 c72 -40 72 -48 0 -10 -55 28 -80 45 -70 45 4 0 36 -16 70 -35z
m199 -52 c13 -17 13 -17 -6 -3 -11 8 -22 16 -24 17 -2 2 0 3 6 3 6 0 17 -8 24
-17z m40 -30 c13 -16 12 -17 -3 -4 -10 7 -18 15 -18 17 0 8 8 3 21 -13z"/>
<path d="M1308 1313 c7 -3 16 -2 19 1 4 3 -2 6 -13 5 -11 0 -14 -3 -6 -6z"/>
<path d="M1139 1213 c-13 -16 -12 -17 4 -4 9 7 17 15 17 17 0 8 -8 3 -21 -13z"/>
<path d="M1103 1169 c-2 -23 3 -25 10 -4 4 8 3 16 -1 19 -4 3 -9 -4 -9 -15z"/>
<path d="M1036 1141 c-3 -5 1 -11 9 -14 9 -4 12 -1 8 9 -6 16 -10 17 -17 5z"/>
<path d="M675 720 c-3 -5 1 -10 10 -10 9 0 13 5 10 10 -3 6 -8 10 -10 10 -2 0
-7 -4 -10 -10z"/>
<path d="M783 695 c0 -8 4 -12 9 -9 5 3 6 10 3 15 -9 13 -12 11 -12 -6z"/>
<path d="M726 602 c-3 -5 4 -18 17 -28 21 -19 21 -19 7 0 -8 11 -13 21 -12 23
2 3 1 7 -1 9 -3 3 -8 1 -11 -4z"/>
<path d="M770 600 c-9 -6 -10 -10 -3 -10 6 0 15 5 18 10 8 12 4 12 -15 0z"/>
<path d="M948 683 c-24 -6 -23 -20 2 -28 11 -4 18 -10 15 -15 -4 -7 17 -7 35
0 3 1 10 2 15 1 6 -1 1 6 -9 14 -14 10 -22 12 -27 4 -5 -8 -8 -8 -13 0 -4 6
-4 16 -1 21 3 6 5 9 3 9 -2 -1 -11 -3 -20 -6z"/>
<path d="M1140 665 c0 -2 8 -9 18 -14 14 -8 19 -6 19 5 0 7 -9 14 -19 14 -10
0 -18 -2 -18 -5z"/>
<path d="M1017 614 c4 -10 10 -11 24 -3 24 13 24 14 -5 15 -17 1 -23 -2 -19
-12z"/>
<path d="M1070 600 c0 -5 5 -10 10 -10 6 0 10 5 10 10 0 6 -4 10 -10 10 -5 0
-10 -4 -10 -10z"/>
<path d="M761 1589 c-16 -45 -14 -48 9 -14 22 33 25 45 11 45 -5 0 -14 -14
-20 -31z"/>
<path d="M1031 1598 c-1 -21 -17 -24 -24 -5 -3 6 -6 8 -6 2 0 -5 4 -17 9 -25
9 -13 11 -13 20 0 8 12 10 13 10 1 0 -8 2 -12 5 -9 3 3 1 16 -4 29 -7 17 -10
19 -10 7z"/>
<path d="M875 1560 c3 -5 8 -10 11 -10 2 0 4 5 4 10 0 6 -5 10 -11 10 -5 0 -7
-4 -4 -10z"/>
<path d="M667 1513 c-12 -12 -7 -33 8 -33 17 0 19 9 7 28 -5 7 -11 9 -15 5z"/>
<path d="M1065 1470 c-3 -5 -1 -10 4 -10 6 0 11 5 11 10 0 6 -2 10 -4 10 -3 0
-8 -4 -11 -10z"/>
<path d="M670 1401 c0 -6 4 -12 8 -15 5 -3 9 1 9 9 0 8 -4 15 -9 15 -4 0 -8
-4 -8 -9z"/>
<path d="M710 1380 c0 -11 2 -20 4 -20 2 0 6 9 9 20 3 11 1 20 -4 20 -5 0 -9
-9 -9 -20z"/>
<path d="M650 1245 c13 -14 26 -25 28 -25 3 0 -5 11 -18 25 -13 14 -26 25 -28
25 -3 0 5 -11 18 -25z"/>
<path d="M1672 615 c3 -33 16 -33 14 0 0 14 -4 25 -8 25 -4 0 -7 -11 -6 -25z"/>
<path d="M1710 490 c0 -5 10 -10 23 -10 18 0 19 2 7 10 -19 13 -30 13 -30 0z"/>
</g>
</svg>
